<svg width="100%" height="100%" viewBox="0 0 50 50" version="1.1" xmlns="http://www.w3.org/2000/svg" xmlns:xlink="http://www.w3.org/1999/xlink" xml:space="preserve" xmlns:serif="http://www.serif.com/" style="fill-rule:evenodd;clip-rule:evenodd;stroke-linejoin:round;stroke-miterlimit:2;">
    <g transform="matrix(0.00390625,0,0,-0.00390625,0,49.4531)">
        <path d="M8225,12640C8125,12619 8010,12580 7938,12544C7793,12471 7204,12437 6929,12485L6833,12502L6754,12465C6711,12444 6662,12417 6645,12403C6629,12390 6484,12292 6325,12187C5959,11944 5816,11870 5555,11790C5272,11703 5170,11536 5183,11185C5193,10919 5277,10718 5401,10663C5422,10654 5440,10640 5440,10633C5440,10626 5463,10609 5490,10595C5518,10581 5542,10564 5544,10557C5546,10550 5557,10505 5569,10456C5580,10407 5610,10322 5636,10266C5775,9964 5774,9965 5775,9854C5775,9756 5774,9752 5730,9659C5691,9578 5685,9556 5685,9500C5685,9447 5682,9434 5667,9428C5649,9420 5646,9415 5635,9366C5632,9351 5621,9336 5611,9333C5598,9330 5590,9311 5580,9262C5561,9160 5488,8941 5389,8686C5340,8559 5293,8440 5285,8422C5277,8404 5270,8379 5270,8367C5270,8355 5245,8311 5213,8270C5057,8064 4989,7800 4988,7402L4987,7200L4961,7194C4909,7182 4875,7169 4854,7152C4832,7135 4832,7133 4841,6917L4850,6698L4880,6668C4939,6610 4974,6514 5000,6350C5021,6211 5050,6128 5125,5985C5212,5819 5235,5749 5227,5671C5221,5610 5151,5405 5089,5270C5020,5118 4998,5019 4999,4849C4999,4584 5098,4280 5290,3955C5323,3899 5364,3820 5381,3777C5410,3707 5415,3700 5445,3694C5483,3687 5515,3646 5621,3466C5661,3398 5708,3333 5746,3295C5782,3259 5858,3157 5932,3045C6001,2940 6081,2829 6110,2797C6152,2751 6176,2708 6226,2594C6261,2514 6306,2422 6325,2390C6370,2315 6445,2248 6514,2219C6572,2196 6578,2185 6583,2092C6585,2060 6582,2058 6533,2040C6456,2013 6335,1986 6035,1931C5887,1903 5707,1865 5635,1845C5524,1814 5496,1810 5440,1816C5396,1820 5326,1815 5221,1800L5067,1778L5038,1815C5008,1851 4957,1882 4909,1893C4894,1897 4861,1918 4834,1941C4787,1980 4541,2110 4513,2110C4506,2110 4474,2124 4442,2141C4371,2179 4329,2177 4208,2126C4099,2082 4050,2071 4050,2094C4050,2126 4088,2185 4160,2265C4247,2362 4273,2404 4301,2495C4313,2534 4339,2597 4360,2635C4407,2720 4427,2788 4485,3044C4515,3179 4536,3250 4549,3264C4605,3326 4658,3465 4679,3607C4696,3719 4693,3742 4656,3804C4637,3835 4603,3904 4580,3958C4511,4115 4452,4225 4413,4265C4377,4302 4313,4337 4302,4325C4298,4322 4303,4282 4312,4238C4332,4144 4378,4046 4481,3880C4551,3766 4552,3764 4546,3710C4538,3631 4491,3456 4410,3207C4325,2942 4275,2755 4259,2636L4246,2546L4149,2431C3818,2035 3546,1738 3468,1686C3329,1592 3143,1404 3094,1308C3080,1281 3070,1243 3070,1220C3070,1183 3072,1180 3098,1180C3161,1180 3228,1255 3249,1349C3256,1383 3273,1408 3322,1457C3393,1530 3534,1640 3555,1640C3563,1640 3585,1648 3604,1657C3639,1673 3641,1673 3687,1648C3820,1577 3964,1554 4169,1570C4244,1576 4314,1583 4325,1585C4336,1588 4407,1597 4483,1605L4621,1621L4667,1583C4692,1562 4780,1469 4863,1375C5087,1121 5198,1018 5295,970C5411,912 5483,897 5625,897C5956,900 6353,1064 6629,1314C6680,1361 6721,1390 6735,1390C6747,1390 6765,1399 6775,1410C6785,1422 6809,1440 6828,1452C6859,1471 6871,1472 6964,1467C7033,1462 7081,1454 7111,1441C7160,1419 7179,1418 7350,1420C7413,1421 7472,1418 7481,1415C7491,1411 7505,1383 7515,1347C7535,1274 7554,1234 7584,1201C7612,1170 7651,1155 7662,1172C7677,1197 7670,1280 7646,1342C7598,1470 7565,1545 7556,1552C7550,1556 7531,1552 7512,1544C7465,1525 7443,1526 7430,1549C7415,1579 7418,1615 7439,1641C7458,1664 7463,1665 7604,1666L7750,1667L7770,1634C7798,1590 7855,1540 7923,1501C7954,1483 7980,1464 7980,1459C7980,1454 7991,1448 8005,1444C8032,1437 8060,1453 8060,1475C8060,1504 7988,1594 7934,1634C7879,1674 7861,1696 7846,1744C7840,1761 7844,1762 7909,1758C8007,1751 8068,1718 8199,1600C8319,1492 8344,1476 8414,1460C8479,1446 8510,1455 8510,1489C8510,1530 8478,1573 8401,1634C8299,1715 8294,1730 8335,1819C8368,1889 8455,1973 8561,2034C8607,2061 8678,2103 8718,2128L8792,2173L8913,2175C9194,2181 9386,2251 9794,2495C9892,2554 9988,2609 10006,2618C10025,2627 10040,2638 10040,2643C10040,2668 10004,2723 9978,2736C9940,2756 9909,2749 9825,2699C9747,2653 9674,2620 9653,2620C9644,2620 9614,2598 9584,2571C9520,2513 9448,2477 9289,2425L9173,2387L9145,2408C9121,2427 9104,2430 9030,2430C8944,2430 8943,2430 8864,2382C8821,2355 8704,2279 8604,2213C8489,2137 8396,2083 8349,2065C8265,2033 8226,2009 8190,1965C8177,1949 8143,1911 8114,1883C8074,1841 8056,1830 8031,1830C7967,1830 7890,1889 7890,1937C7890,1961 8007,2115 8145,2275C8206,2345 8286,2439 8323,2484C8360,2528 8402,2571 8415,2578C8455,2599 8462,2622 8446,2687C8439,2719 8436,2755 8440,2766C8445,2777 8487,2822 8536,2866C8730,3042 8992,3355 9095,3535C9146,3623 9404,3974 9560,4165C9853,4527 10209,4874 10408,4993L10460,5025L10460,5132C10460,5191 10467,5305 10476,5385C10485,5469 10490,5585 10488,5661L10485,5792L10534,5786C10562,5783 10607,5769 10636,5755C10685,5731 10689,5726 10699,5682C10704,5656 10711,5552 10715,5450C10723,5225 10734,5132 10760,5072C10776,5036 10778,5024 10768,5013C10745,4985 10644,4922 10490,4840C10299,4738 10203,4673 10139,4601L10090,4546L10115,4520C10148,4485 10164,4432 10147,4412C10141,4404 10104,4372 10067,4343C10029,4313 9994,4278 9989,4266C9983,4253 9939,4224 9877,4193C9770,4138 9700,4081 9656,4011C9624,3960 9624,3945 9655,3908C9701,3853 9694,3843 9533,3724C9393,3621 9214,3458 9175,3397C9161,3375 9160,3367 9170,3355C9177,3347 9189,3340 9197,3340C9204,3340 9259,3389 9318,3449C9421,3554 9680,3758 9795,3824C9823,3840 9872,3875 9904,3902C9937,3930 10008,3974 10063,4002C10118,4029 10230,4090 10314,4137C10505,4246 10621,4302 10743,4341C10837,4371 10855,4385 10844,4415C10833,4443 10794,4442 10699,4410C10577,4369 10478,4322 10294,4217C10005,4053 9909,4012 9910,4054C9911,4081 10021,4179 10101,4223C10147,4248 10233,4300 10291,4337C10350,4374 10454,4441 10524,4485C10657,4570 10664,4579 10635,4630C10611,4672 10617,4699 10657,4736C10744,4816 10834,4818 11055,4747C11185,4705 11195,4700 11198,4675C11201,4656 11191,4638 11164,4608C11129,4568 11128,4565 11134,4511C11137,4480 11153,4417 11170,4370C11189,4315 11200,4265 11200,4229C11200,4180 11203,4171 11229,4152C11245,4141 11274,4098 11294,4058C11314,4018 11347,3963 11366,3935C11396,3893 11401,3879 11397,3847C11390,3793 11363,3772 11278,3755C11037,3704 10685,3597 10359,3474C10082,3370 9627,3182 9619,3168C9610,3153 9618,3133 9636,3126C9644,3123 9764,3167 9904,3225C10387,3422 10663,3522 10965,3609C11163,3666 11363,3710 11426,3710C11513,3710 11710,3760 11710,3782C11710,3787 11688,3812 11660,3839C11616,3882 11610,3892 11610,3929C11610,3988 11624,3991 11816,3973C12001,3956 12069,3964 12121,4007C12154,4035 12184,4088 12193,4137L12199,4169L11972,4163C11847,4160 11711,4160 11669,4164L11593,4171L11581,4222C11573,4249 11541,4327 11508,4393C11425,4561 11404,4617 11380,4727C11356,4838 11350,4852 11302,4902C11263,4943 11208,4965 11118,4975C11004,4988 10940,5045 10924,5149C10920,5173 10924,5252 10933,5324C10945,5422 10948,5502 10943,5643L10937,5830L10978,5868C11013,5901 11022,5918 11045,6000C11076,6112 11138,6291 11187,6410C11227,6509 11264,6571 11330,6655C11401,6745 11412,6773 11412,6854C11412,6939 11397,7007 11325,7243C11266,7436 11230,7593 11230,7660C11230,7698 11223,7709 11165,7773C11130,7813 11072,7881 11038,7924C10962,8020 10922,8053 10844,8085L10785,8109L10782,8167C10775,8318 10892,8399 11170,8437C11284,8452 11519,8451 11890,8434L12015,8429L12048,8473C12066,8498 12147,8589 12227,8677C12308,8764 12400,8871 12431,8915C12519,9037 12539,9058 12599,9099C12746,9199 12826,9354 12790,9466C12783,9488 12757,9533 12734,9566C12685,9634 12660,9688 12660,9722C12660,9737 12633,9774 12585,9825C12491,9924 12412,10042 12273,10290C12213,10397 12126,10541 12080,10610C11989,10745 11936,10851 11925,10918C11921,10941 11914,10960 11909,10960C11905,10960 11885,10974 11866,10991C11841,11013 11821,11047 11795,11114C11735,11269 11556,11562 11425,11720C11283,11890 11061,12085 10866,12210C10625,12364 10517,12401 10318,12398C10214,12396 10052,12403 9535,12430C9135,12452 8882,12499 8705,12586C8555,12660 8402,12677 8225,12640ZM8545,12545C8578,12537 8670,12497 8750,12456C8896,12381 9035,12331 9145,12311C9178,12305 9300,12291 9415,12279C9680,12252 9921,12256 10105,12291C10254,12319 10301,12317 10415,12279C10521,12244 10635,12184 10820,12068C10894,12021 10978,11971 11006,11957C11049,11935 11063,11920 11103,11852C11155,11762 11238,11667 11298,11630C11332,11609 11349,11583 11411,11465C11578,11143 11735,10871 12123,10230C12272,9985 12449,9687 12517,9568L12641,9352L12627,9318C12619,9300 12589,9263 12561,9235C12523,9198 12508,9175 12504,9148C12499,9122 12489,9105 12466,9089C12449,9077 12341,8972 12225,8855L12015,8642L11785,8637C11659,8633 11492,8624 11415,8615C11338,8607 11202,8597 11114,8593L10952,8587L10945,8618C10942,8635 10946,8714 10954,8792C10963,8871 10971,8957 10972,8984C10975,9031 10976,9034 11015,9047C11125,9087 11325,9099 11583,9083C11679,9078 11690,9075 11690,9058C11690,9030 11674,9005 11626,8956C11585,8915 11579,8913 11509,8906C11367,8893 11210,8848 11210,8820C11210,8815 11225,8801 11243,8790C11306,8751 11466,8767 11577,8823C11606,8838 11645,8850 11664,8850C11715,8850 11801,8885 11847,8925C11930,8996 11951,9093 11905,9187C11890,9215 11872,9244 11864,9251C11838,9272 11532,9322 11350,9335C11246,9342 11083,9328 10983,9303L10920,9288L10920,9211C10920,9122 10879,8948 10805,8720C10713,8439 10549,8053 10515,8040C10369,7985 10285,7977 10211,8011C10183,8023 10121,8075 10051,8144C9987,8206 9925,8264 9913,8272C9878,8295 9830,8360 9830,8384C9830,8402 9813,8414 9748,8445C9703,8467 9583,8541 9481,8608C9239,8770 9168,8805 8910,8893C8573,9008 8192,9091 7862,9121C7687,9136 7220,9128 7050,9106C6567,9043 6062,8903 5637,8713C5606,8699 5577,8690 5573,8694C5570,8697 5574,8746 5583,8803C5601,8910 5682,9165 5768,9380C5874,9647 5897,9744 5909,9958C5919,10124 5930,10176 5960,10185C5970,10188 5997,10215 6019,10245C6067,10309 6170,10399 6259,10455C6293,10477 6349,10519 6383,10547C6417,10576 6471,10618 6503,10641C6583,10697 6603,10730 6596,10798C6589,10872 6580,10880 6500,10880L6433,10880L6427,10945C6423,10998 6411,11033 6369,11121C6325,11212 6313,11230 6296,11228C6270,11224 6250,11185 6250,11138C6250,11098 6232,11048 6219,11052C6203,11058 6108,11184 6085,11231C6063,11273 6060,11293 6060,11379C6060,11501 6046,11570 6015,11604C5994,11627 5988,11628 5960,11619C5913,11602 5895,11567 5896,11490C5897,11415 5920,11340 5959,11290C5974,11271 6005,11221 6029,11179C6052,11138 6096,11076 6126,11043C6161,11003 6180,10973 6180,10957C6180,10927 6197,10922 6258,10931C6286,10935 6306,10932 6319,10923C6347,10904 6381,10806 6382,10746C6382,10698 6380,10693 6340,10660C6316,10641 6272,10600 6241,10570C6210,10540 6147,10487 6102,10452C6057,10417 5996,10360 5968,10324C5939,10289 5908,10260 5899,10260C5891,10260 5873,10249 5860,10235C5847,10221 5831,10210 5824,10210C5788,10210 5764,10327 5740,10619C5715,10928 5697,11008 5626,11103C5603,11135 5533,11180 5506,11180C5497,11180 5471,11171 5449,11160C5403,11136 5403,11126 5453,11045C5551,10886 5550,10887 5550,10836C5550,10749 5489,10690 5448,10738C5420,10769 5389,10840 5367,10923C5348,10996 5346,11029 5347,11220C5347,11338 5352,11458 5356,11485L5365,11535L5509,11610C5588,11651 5672,11701 5694,11721C5717,11740 5758,11764 5785,11774C5907,11819 6095,11928 6376,12116C6630,12285 6686,12319 6727,12325C6753,12329 6917,12329 7092,12325L7409,12317L7434,12346L7458,12375L7647,12372C7853,12368 7901,12377 7938,12425C7965,12459 8108,12516 8241,12545C8327,12563 8472,12563 8545,12545ZM7865,8990C8222,8948 8541,8870 8840,8753C8941,8714 9124,8624 9187,8583L9208,8569L9178,8520C9141,8460 9145,8446 9216,8381C9247,8353 9270,8323 9270,8312C9270,8301 9286,8271 9305,8245C9325,8220 9338,8195 9335,8190C9324,8173 9301,8179 9289,8203C9282,8215 9270,8230 9261,8237C9246,8249 9134,8290 9118,8290C9099,8290 9113,8248 9146,8209C9196,8150 9210,8118 9210,8067C9210,8019 9227,7998 9308,7947C9356,7916 9361,7897 9325,7874C9308,7863 9300,7849 9300,7829C9300,7798 9310,7791 9394,7754C9469,7721 9510,7685 9510,7650C9510,7624 9506,7620 9484,7620C9470,7620 9450,7625 9439,7630C9422,7639 9420,7637 9420,7611C9420,7573 9444,7545 9505,7512C9575,7474 9573,7441 9499,7426C9481,7422 9470,7412 9466,7395C9457,7359 9474,7333 9517,7319C9580,7299 9630,7270 9630,7255C9630,7247 9641,7233 9655,7224C9685,7204 9760,7213 9760,7236C9760,7271 9727,7311 9678,7336C9631,7360 9629,7363 9644,7378C9658,7392 9665,7393 9707,7381C9796,7355 9826,7355 9844,7382C9858,7403 9858,7411 9845,7460L9830,7515L9865,7543C9894,7567 9904,7587 9926,7658C9969,7806 9985,7831 10043,7845C10069,7852 10070,7850 10070,7816L10070,7779L10102,7796C10120,7805 10193,7831 10265,7852C10336,7874 10415,7903 10439,7918C10463,7933 10492,7951 10504,7958C10519,7968 10555,7970 10637,7966C10769,7961 10828,7940 10860,7888L10880,7855L10762,7849C10698,7845 10581,7839 10502,7835L10358,7827L10320,7776C10278,7720 10253,7667 10225,7575C10203,7504 10198,7308 10217,7275C10223,7264 10254,7242 10286,7225C10359,7187 10393,7138 10444,7000C10465,6942 10489,6886 10496,6875C10515,6848 10514,6836 10486,6803C10473,6787 10460,6761 10458,6746C10456,6724 10447,6714 10417,6703C10351,6676 10346,6685 10353,6809C10360,6932 10352,6976 10312,7015C10263,7064 10217,7069 10204,7027C10199,7011 10206,6999 10235,6975L10272,6943L10269,6864C10263,6675 10261,6685 10305,6640C10341,6603 10348,6599 10380,6605C10420,6613 10545,6665 10577,6689C10606,6710 10630,6760 10630,6798C10630,6814 10619,6865 10605,6911C10548,7097 10530,7166 10530,7197C10530,7232 10501,7260 10423,7299C10400,7310 10374,7330 10366,7342C10343,7374 10346,7438 10373,7485C10390,7515 10503,7671 10535,7708C10537,7710 10555,7707 10576,7701C10598,7695 10669,7686 10735,7680C10887,7667 10977,7651 10988,7636C10993,7630 11001,7598 11004,7565C11008,7532 11031,7415 11055,7305C11111,7053 11120,6995 11120,6891C11120,6738 11083,6635 10984,6515C10884,6393 10869,6365 10876,6304C10882,6254 10881,6251 10853,6237C10811,6215 10801,6199 10793,6144C10788,6102 10778,6086 10728,6032C10684,5985 10670,5962 10670,5940L10670,5910L10432,5910L10402,5958C10385,5984 10364,6022 10355,6043C10347,6063 10333,6080 10325,6080C10302,6080 10292,6111 10297,6165C10301,6210 10298,6221 10264,6275C10187,6400 10179,6417 10171,6492C10166,6532 10140,6635 10112,6720C10039,6943 10017,7057 10017,7215L10016,7345L10060,7420C10092,7475 10105,7509 10108,7547C10113,7611 10105,7647 10082,7659C10049,7677 10037,7656 10035,7583C10034,7522 10030,7508 9991,7442C9967,7401 9937,7358 9925,7346C9893,7314 9876,7176 9883,6998C9892,6760 9922,6652 10093,6255C10164,6088 10191,6036 10225,5999C10340,5875 10382,5684 10346,5441C10326,5310 10270,5129 10209,5003C10168,4920 10156,4905 9987,4740C9707,4468 9499,4222 9205,3820C8632,3035 7987,2531 7242,2284C7144,2252 7129,2244 7132,2227C7134,2216 7151,2198 7170,2187C7204,2168 7220,2153 7220,2138C7220,2133 7186,2130 7145,2130C7045,2130 6980,2153 6800,2250C6648,2333 6571,2365 6498,2379C6470,2384 6456,2391 6458,2400C6460,2407 6454,2436 6445,2463C6436,2490 6431,2515 6435,2518C6438,2521 6464,2516 6494,2507C6558,2486 6571,2486 6596,2504C6614,2518 6614,2519 6585,2550C6541,2596 6398,2700 6302,2756C6196,2817 6161,2857 5994,3105C5921,3215 5852,3316 5841,3330C5813,3367 5511,3832 5455,3925C5321,4147 5229,4372 5183,4588C5159,4700 5156,4738 5156,4900C5156,5151 5173,5242 5270,5515C5290,5572 5314,5618 5336,5642C5383,5695 5381,5731 5325,5850C5297,5909 5280,5959 5280,5982C5280,6002 5261,6072 5238,6137C5122,6469 5088,6680 5122,6881L5133,6951L5214,6944C5259,6941 5400,6920 5529,6899C5657,6878 5773,6860 5785,6860C5805,6860 5807,6864 5803,6896C5794,6977 5737,7033 5627,7069C5543,7096 5522,7100 5315,7129L5135,7155L5132,7280C5126,7505 5158,7780 5215,7994C5248,8117 5295,8252 5320,8292C5331,8310 5340,8332 5340,8342C5340,8378 5531,8511 5705,8595C5944,8711 6234,8800 6690,8900C6770,8917 6843,8934 6853,8936C6866,8940 6870,8935 6870,8913C6870,8890 6836,8852 6660,8680C6545,8567 6450,8468 6450,8459C6450,8438 6475,8417 6494,8422C6503,8424 6605,8520 6722,8636C6904,8816 6943,8849 6990,8868C7121,8920 7264,8940 7497,8940C7650,8940 7659,8941 7665,8960C7677,8997 7700,9012 7739,9006C7759,9003 7816,8995 7865,8990ZM9320,8494C9338,8461 9385,8425 9479,8370C9616,8291 9669,8223 9670,8127L9670,8080L9628,8106C9604,8120 9533,8185 9470,8249C9407,8314 9327,8387 9292,8413L9230,8460L9245,8490C9265,8529 9301,8530 9320,8494ZM9844,7994C9853,7986 9860,7970 9860,7959C9860,7944 9853,7940 9825,7940C9792,7940 9790,7942 9790,7975C9790,8003 9794,8010 9809,8010C9820,8010 9836,8003 9844,7994ZM8317,2614C8321,2602 8276,2547 8085,2327C8019,2251 7929,2141 7885,2082C7795,1962 7772,1946 7583,1869C7400,1796 7331,1726 7314,1602C7308,1553 7305,1550 7271,1540C7226,1528 7107,1527 7095,1539C7089,1544 7069,1552 7050,1557C7018,1565 7014,1570 7008,1611C6996,1689 6999,1825 7014,1874C7036,1947 7068,1987 7115,2000C7150,2010 7170,2008 7257,1985C7313,1971 7378,1960 7402,1960C7426,1961 7459,1958 7476,1955C7500,1950 7509,1952 7514,1965C7521,1984 7505,2020 7489,2020C7484,2020 7474,2033 7469,2049C7460,2073 7446,2083 7397,2102C7330,2128 7321,2139 7347,2165C7362,2180 7376,2182 7447,2176C7528,2170 7531,2171 7553,2196C7583,2232 7632,2261 7715,2294C7767,2314 7796,2333 7825,2366C7859,2404 7881,2417 7975,2452C8076,2490 8129,2520 8235,2601C8273,2630 8310,2636 8317,2614ZM4550,2008C4583,1993 4626,1962 4655,1931C4715,1867 4729,1859 4794,1851C4842,1845 4846,1843 4867,1799C4894,1742 4949,1695 5006,1681C5063,1666 5188,1668 5275,1684C5314,1691 5395,1707 5455,1718C5516,1730 5615,1744 5675,1750C5792,1761 5948,1794 6198,1860C6415,1917 6565,1942 6700,1943C6790,1944 6822,1940 6846,1927C6882,1908 6897,1881 6878,1868C6853,1853 6774,1832 6676,1815C6609,1803 6557,1787 6516,1766C6479,1746 6437,1733 6410,1731C6240,1722 6072,1664 5980,1582C5936,1542 5935,1541 5950,1513C5963,1490 5978,1482 6034,1468C6093,1454 6143,1427 6129,1417C6127,1416 6073,1397 6008,1376C5902,1340 5886,1338 5821,1344C5759,1349 5750,1348 5741,1331C5725,1303 5748,1283 5815,1265C5884,1247 5978,1246 6052,1261C6125,1276 6269,1348 6365,1418L6445,1476L6451,1558C6454,1603 6463,1646 6470,1655C6478,1665 6500,1670 6531,1670C6561,1670 6608,1681 6655,1700C6739,1733 6785,1738 6817,1715C6873,1676 6849,1561 6775,1510C6751,1493 6725,1480 6716,1480C6708,1480 6697,1474 6693,1467C6678,1441 6606,1401 6325,1263C5908,1057 5783,1022 5574,1053C5514,1063 5437,1070 5402,1070C5343,1070 5337,1072 5285,1115C5254,1140 5217,1163 5202,1166C5161,1177 5118,1218 4942,1415C4854,1514 4748,1626 4706,1663C4664,1701 4604,1763 4574,1801C4515,1874 4434,1925 4388,1918C4353,1913 4351,1865 4384,1831C4398,1816 4412,1790 4416,1773C4421,1746 4419,1740 4394,1727C4305,1683 4017,1670 3870,1704C3764,1728 3761,1731 3784,1775C3798,1800 3820,1819 3863,1840C3896,1857 3928,1870 3935,1870C3961,1870 4076,1913 4095,1930C4106,1940 4138,1959 4165,1973C4193,1987 4224,2008 4235,2020C4254,2041 4261,2042 4375,2038C4477,2034 4503,2030 4550,2008Z" style="fill-rule:nonzero;"/>
        <path d="M7894,11986C7838,11961 7836,11932 7881,11768C7903,11690 7935,11552 7952,11463L7983,11301L8011,11321C8073,11365 8118,11523 8105,11650C8090,11795 8046,11911 7985,11973C7954,12003 7939,12005 7894,11986Z" style="fill-rule:nonzero;"/>
        <path d="M9011,11968C8902,11915 8793,11775 8727,11605C8689,11506 8610,11266 8610,11249C8610,11225 8546,11140 8528,11140C8513,11140 8510,11148 8510,11189C8510,11344 8463,11638 8420,11752C8397,11814 8387,11817 8349,11773C8299,11717 8296,11697 8290,11440C8284,11196 8284,11195 8256,11141C8237,11104 8229,11077 8232,11054C8234,11033 8231,11019 8223,11016C8204,11008 8170,10935 8170,10901C8170,10867 8192,10840 8220,10840C8246,10840 8287,10897 8299,10950C8312,11009 8347,11080 8363,11080C8397,11079 8399,11066 8383,10974C8369,10896 8369,10880 8381,10854C8400,10815 8443,10810 8477,10842C8578,10937 8679,11155 8775,11491C8798,11570 8805,11581 8955,11765C9024,11848 9055,11904 9066,11958C9074,11995 9070,11996 9011,11968Z" style="fill-rule:nonzero;"/>
        <path d="M7035,11876L6937,11770L6961,11717C7033,11561 7178,11394 7489,11111C7563,11044 7632,10976 7642,10960C7660,10929 7675,10924 7699,10939C7711,10947 7711,10960 7702,11013C7689,11095 7669,11138 7615,11198C7592,11224 7547,11288 7515,11340C7411,11511 7233,11717 7085,11836L7035,11876Z" style="fill-rule:nonzero;"/>
        <path d="M6433,11738C6392,11594 6385,11553 6385,11450C6385,11360 6388,11338 6408,11298C6421,11272 6446,11242 6463,11231C6493,11212 6496,11212 6502,11228C6506,11237 6509,11317 6509,11406C6510,11583 6517,11619 6563,11668C6580,11685 6589,11700 6582,11700C6576,11700 6559,11722 6546,11749C6521,11797 6505,11810 6471,11810C6457,11810 6448,11792 6433,11738Z" style="fill-rule:nonzero;"/>
        <path d="M10151,11458C10117,11453 10043,11423 9945,11374C9851,11327 9770,11294 9733,11287C9678,11277 9672,11273 9660,11242C9652,11219 9626,11192 9574,11154C9487,11090 9469,11066 9462,11005C9458,10964 9459,10960 9479,10960C9514,10960 9580,10998 9662,11066C9762,11150 9855,11192 9874,11161C9883,11147 9809,11040 9728,10950C9537,10735 9499,10671 9492,10548L9488,10471L9543,10471C9587,10471 9612,10464 9666,10436C9703,10416 9740,10400 9749,10400C9759,10400 9781,10429 9804,10473C9889,10630 9999,10773 10191,10977C10248,11037 10319,11112 10349,11144C10378,11176 10418,11208 10437,11216C10478,11234 10490,11258 10466,11276C10446,11290 10416,11283 10371,11252C10357,11242 10323,11226 10297,11216C10271,11206 10219,11173 10182,11143C10117,11090 10052,11050 10030,11050C10009,11050 10069,11147 10122,11196C10151,11224 10203,11260 10237,11275C10283,11296 10298,11308 10298,11324C10297,11336 10303,11360 10311,11377C10323,11406 10322,11412 10309,11425C10282,11452 10210,11467 10151,11458Z" style="fill-rule:nonzero;"/>
        <path d="M10870,11313C10784,11297 10630,11200 10539,11104C10509,11071 10433,10998 10371,10941C10258,10837 10135,10700 10045,10580C10019,10544 9983,10500 9966,10482C9941,10456 9938,10446 9946,10432C9973,10390 9995,10405 10091,10531C10208,10684 10344,10836 10441,10919C10482,10955 10525,10993 10538,11004C10558,11021 10581,11025 10738,11031C10837,11035 10947,11046 10987,11055C11075,11075 11156,11123 11184,11172L11204,11208L11165,11244C11094,11308 10983,11334 10870,11313Z" style="fill-rule:nonzero;"/>
        <path d="M7014,11055C6994,11007 6996,10968 7022,10914C7048,10858 7090,10830 7148,10830L7190,10830L7190,11006L7117,11048C7077,11071 7041,11090 7036,11090C7032,11090 7022,11074 7014,11055Z" style="fill-rule:nonzero;"/>
        <path d="M6731,11003C6719,10976 6699,10919 6686,10875L6663,10795L6698,10768C6736,10737 6751,10734 6783,10751C6852,10789 6893,10927 6855,10999C6842,11025 6797,11050 6765,11050C6759,11050 6743,11029 6731,11003Z" style="fill-rule:nonzero;"/>
        <path d="M8733,11015C8650,10973 8600,10892 8600,10800C8600,10759 8603,10750 8618,10750C8649,10750 8737,10808 8779,10857C8822,10908 8886,11018 8876,11027C8873,11030 8852,11034 8828,11037C8795,11040 8773,11035 8733,11015Z" style="fill-rule:nonzero;"/>
        <path d="M7262,10918C7265,10889 7269,10885 7298,10882C7329,10879 7330,10880 7330,10914C7330,10949 7329,10950 7294,10950C7260,10950 7259,10949 7262,10918Z" style="fill-rule:nonzero;"/>
        <path d="M8031,10920L8009,10890L8037,10865C8052,10852 8067,10841 8070,10840C8073,10840 8085,10854 8097,10871L8118,10903L8090,10926C8075,10939 8060,10950 8058,10950C8056,10950 8044,10936 8031,10920Z" style="fill-rule:nonzero;"/>
        <path d="M9203,10895C9187,10876 9156,10828 9134,10790L9095,10720L9030,10720C8994,10721 8948,10727 8927,10734C8895,10746 8887,10746 8875,10733C8858,10717 8857,10710 8868,10695C8888,10668 8917,10656 8983,10649C9023,10645 9090,10629 9133,10615C9224,10583 9226,10584 9266,10669C9303,10745 9313,10873 9284,10896C9238,10932 9233,10932 9203,10895Z" style="fill-rule:nonzero;"/>
        <path d="M10840,10891C10798,10878 10736,10843 10716,10821C10706,10810 10654,10777 10602,10748C10549,10719 10478,10669 10444,10638C10396,10593 10375,10580 10351,10580C10334,10580 10320,10575 10320,10568C10320,10531 10275,10470 10210,10421C10096,10334 10052,10271 10077,10231C10102,10190 10151,10170 10224,10170C10296,10170 10321,10177 10590,10275C10631,10290 10695,10305 10731,10307C10801,10313 10874,10296 10867,10277C10861,10257 10777,10205 10704,10175C10591,10129 10457,10063 10433,10042C10395,10009 10370,9957 10370,9913L10370,9870L10420,9870C10447,9870 10583,9884 10722,9900C11052,9940 11239,9952 11360,9940C11487,9928 11540,9919 11540,9910C11540,9901 11444,9874 11380,9865C11214,9840 11147,9818 11098,9772C11060,9737 11063,9723 11113,9709C11175,9692 11286,9704 11443,9744C11547,9771 11603,9780 11664,9780C11753,9780 11854,9756 11847,9737C11842,9720 11613,9645 11494,9621C11285,9578 11068,9568 10973,9596C10894,9619 10799,9612 10765,9580C10751,9567 10740,9551 10740,9544C10740,9523 10793,9501 10861,9494C10954,9485 11308,9507 11443,9530C11615,9559 11824,9622 11895,9666C11906,9673 11944,9686 11980,9696C12016,9705 12059,9720 12075,9728C12109,9744 12150,9779 12150,9792C12150,9796 12112,9818 12065,9841C12018,9863 11975,9890 11969,9902C11963,9913 11958,9947 11959,9976C11959,10006 11956,10030 11952,10030C11948,10030 11905,10037 11855,10044C11588,10087 11214,10090 11050,10051C10944,10025 10858,10024 10819,10047C10803,10057 10790,10067 10790,10071C10790,10080 10934,10150 11030,10188C11138,10231 11259,10266 11410,10300C11483,10316 11544,10330 11546,10332C11548,10335 11542,10361 11534,10392C11495,10528 11380,10590 11167,10590C11062,10590 10964,10576 10692,10526C10484,10487 10440,10483 10440,10502C10440,10509 10466,10539 10498,10570C10563,10631 10708,10713 10810,10746C10846,10757 10889,10774 10906,10783C10939,10800 11010,10866 11010,10880C11010,10899 10892,10906 10840,10891Z" style="fill-rule:nonzero;"/>
        <path d="M11705,9546C11696,9533 11686,9506 11683,9486C11672,9414 11762,9363 11940,9340C11987,9334 12058,9325 12099,9320C12140,9314 12175,9311 12177,9313C12179,9316 12183,9340 12187,9367C12202,9502 12083,9569 11828,9570C11726,9570 11720,9569 11705,9546Z" style="fill-rule:nonzero;"/>
        <path d="M10380,9405C10360,9381 10404,9326 10520,9224C10623,9134 10652,9120 10658,9154C10661,9167 10624,9209 10534,9296C10464,9364 10403,9420 10399,9420C10396,9420 10387,9413 10380,9405Z" style="fill-rule:nonzero;"/>
        <path d="M10188,9188C10197,9149 10220,9122 10252,9111C10294,9096 10300,9097 10294,9118C10280,9159 10264,9183 10238,9196C10198,9217 10181,9214 10188,9188Z" style="fill-rule:nonzero;"/>
        <path d="M10513,8963C10493,8956 10498,8912 10520,8890C10542,8868 10571,8864 10601,8880C10629,8895 10624,8911 10583,8943C10547,8970 10536,8973 10513,8963Z" style="fill-rule:nonzero;"/>
        <path d="M10316,8574C10313,8565 10310,8548 10310,8535C10310,8491 10320,8480 10360,8480C10402,8480 10417,8499 10400,8530C10394,8540 10390,8558 10390,8569C10390,8586 10384,8590 10356,8590C10334,8590 10320,8584 10316,8574Z" style="fill-rule:nonzero;"/>
        <path d="M7239,8805C7224,8797 7164,8770 7106,8745C6917,8664 6770,8564 6590,8393C6525,8330 6468,8270 6465,8259C6457,8236 6475,8210 6499,8210C6508,8210 6566,8260 6627,8320C6689,8380 6773,8454 6813,8485C6978,8609 7158,8698 7259,8706C7318,8710 7350,8727 7384,8774C7402,8797 7403,8802 7390,8810C7367,8825 7268,8821 7239,8805Z" style="fill-rule:nonzero;"/>
        <path d="M7160,8566C6904,8476 6672,8289 6439,7984C6368,7891 6360,7871 6384,7850C6406,7833 6422,7846 6484,7929C6628,8122 6789,8281 6935,8376C7038,8442 7075,8461 7185,8499C7281,8533 7294,8544 7279,8572C7267,8595 7240,8594 7160,8566Z" style="fill-rule:nonzero;"/>
        <path d="M7214,8311C7087,8247 6953,8173 6916,8147C6801,8064 6724,7946 6713,7835L6707,7780L6806,7826C7065,7946 7180,8010 7247,8073C7278,8102 7287,8104 7462,8126C7695,8156 7744,8156 7772,8130C7784,8119 7804,8110 7816,8110C7834,8110 7840,8103 7845,8076C7860,8001 7927,7937 7969,7960C7980,7965 7998,7970 8009,7970C8026,7970 8030,7976 8030,7999C8030,8044 8016,8073 7966,8129C7910,8192 7890,8229 7890,8272C7890,8302 7883,8310 7835,8343C7765,8390 7734,8390 7669,8345C7639,8324 7606,8310 7588,8310C7563,8310 7556,8316 7539,8355C7515,8410 7495,8430 7467,8429C7455,8428 7341,8376 7214,8311Z" style="fill-rule:nonzero;"/>
        <path d="M6352,8108C6347,8101 6335,8080 6326,8062C6305,8021 6319,7993 6351,8011C6376,8024 6405,8083 6397,8104C6389,8123 6366,8125 6352,8108Z" style="fill-rule:nonzero;"/>
        <path d="M10769,7553C10746,7484 10754,7376 10793,7215C10854,6961 10861,6862 10822,6785C10799,6737 10726,6641 10714,6640C10690,6640 10619,6554 10600,6503C10574,6432 10574,6332 10601,6245L10621,6179L10653,6186C10738,6204 10750,6231 10761,6429C10768,6547 10775,6591 10788,6611C10853,6715 10888,6759 10905,6762C10918,6764 10934,6784 10949,6815C11009,6939 10973,7281 10880,7474C10852,7534 10808,7590 10790,7590C10786,7590 10776,7573 10769,7553Z" style="fill-rule:nonzero;"/>
        <path d="M7263,7185C7170,7160 7109,7121 7019,7031C6949,6961 6924,6927 6884,6848C6844,6769 6837,6747 6846,6733C6860,6710 6887,6705 6906,6721C6914,6727 6939,6769 6963,6814C7038,6959 7085,6996 7271,7054C7381,7088 7479,7139 7488,7167C7497,7198 7353,7209 7263,7185Z" style="fill-rule:nonzero;"/>
        <path d="M8296,7104C8236,7085 8175,7047 8159,7019C8140,6983 8168,6966 8246,6968C8299,6968 8325,6975 8376,7000C8448,7035 8504,7095 8479,7111C8457,7124 8351,7120 8296,7104Z" style="fill-rule:nonzero;"/>
        <path d="M7487,6953C7478,6942 7452,6928 7431,6921C7378,6906 7293,6839 7190,6735C7099,6642 7075,6626 6991,6600C6934,6584 6906,6557 6895,6508C6890,6487 6892,6481 6909,6475C6939,6466 6983,6477 7009,6501C7021,6512 7045,6526 7063,6532C7116,6550 7177,6597 7277,6697C7404,6823 7432,6840 7524,6850C7605,6860 7633,6872 7649,6906C7657,6925 7655,6931 7632,6946C7617,6956 7582,6966 7555,6968C7515,6971 7502,6968 7487,6953Z" style="fill-rule:nonzero;"/>
        <path d="M6552,6858C6484,6815 6457,6712 6484,6597C6529,6407 6661,6278 6756,6333C6777,6345 6777,6346 6723,6470C6654,6631 6614,6744 6605,6806C6594,6878 6590,6882 6552,6858Z" style="fill-rule:nonzero;"/>
        <path d="M5883,6693C5864,6686 5867,6628 5890,6574C5908,6534 5909,6524 5897,6513C5882,6498 5866,6500 5731,6540C5638,6568 5575,6563 5545,6528C5532,6513 5508,6501 5486,6497C5415,6486 5351,6417 5332,6333C5325,6302 5326,6286 5335,6274C5353,6248 5377,6264 5385,6307C5394,6355 5423,6403 5457,6425C5479,6440 5500,6442 5604,6437C5776,6430 5869,6393 5924,6310C5947,6276 5969,6209 5970,6173C5970,6157 5958,6154 5787,6126C5680,6108 5620,6092 5573,6071C5537,6054 5500,6040 5491,6040C5444,6040 5404,5981 5394,5898L5388,5844L5426,5827C5481,5803 5596,5817 5644,5854C5671,5874 5691,5880 5743,5882C5782,5884 5814,5880 5820,5874C5836,5858 5808,5745 5766,5661C5717,5564 5690,5479 5690,5420C5690,5392 5701,5313 5715,5244C5746,5091 5749,4967 5722,4948C5713,4941 5690,4916 5672,4893C5654,4870 5630,4848 5620,4845C5605,4840 5600,4829 5600,4802C5599,4751 5579,4700 5538,4643C5518,4617 5497,4578 5491,4557C5479,4523 5481,4516 5504,4475C5519,4451 5552,4404 5578,4371C5655,4276 5846,4080 5862,4080C5871,4080 5883,4087 5890,4095C5900,4107 5899,4115 5886,4135C5877,4148 5870,4169 5870,4180C5870,4218 5842,4270 5792,4323C5765,4351 5735,4389 5726,4407C5711,4437 5711,4439 5738,4467C5765,4495 5766,4495 5855,4489C5905,4486 5976,4485 6013,4488C6073,4492 6083,4496 6097,4519C6106,4533 6143,4590 6179,4645C6266,4778 6293,4846 6294,4933C6295,4997 6296,5001 6320,5007C6334,5010 6370,5026 6401,5042C6439,5062 6468,5070 6491,5068C6524,5065 6525,5064 6522,5026C6520,5005 6508,4968 6495,4944C6481,4918 6474,4892 6477,4879C6483,4858 6487,4858 6599,4863C6699,4867 6732,4874 6843,4910C6914,4933 7006,4958 7048,4966L7123,4980L7314,5174L7505,5367L7705,5374C7904,5381 7937,5378 7997,5347C8035,5327 8050,5339 8050,5392C8050,5419 8039,5447 8015,5485C7975,5549 7970,5550 7830,5525C7783,5517 7724,5510 7697,5510C7652,5510 7649,5512 7613,5561C7564,5629 7543,5636 7483,5604C7420,5570 7379,5576 7287,5631C7137,5720 7098,5732 7040,5708L7006,5694L7047,5649C7070,5624 7121,5586 7161,5565C7246,5518 7318,5457 7326,5425C7334,5393 7300,5322 7259,5283C7188,5217 7099,5186 6870,5150C6796,5138 6693,5117 6642,5103C6591,5089 6547,5079 6545,5081C6543,5083 6545,5105 6550,5130C6561,5191 6592,5215 6687,5235C6864,5273 6894,5286 6975,5357C7016,5394 7050,5428 7050,5435C7050,5450 6984,5606 6958,5652C6946,5673 6926,5697 6913,5705C6892,5719 6889,5718 6874,5695C6855,5666 6860,5625 6890,5555C6916,5494 6925,5419 6910,5391C6904,5378 6883,5362 6865,5354C6836,5342 6828,5343 6800,5357C6751,5381 6601,5370 6480,5333L6385,5305L6382,5268C6380,5241 6386,5220 6406,5191C6420,5169 6430,5144 6427,5136C6424,5129 6396,5110 6364,5094C6314,5069 6298,5067 6221,5069C6174,5070 6134,5073 6132,5075C6129,5077 6128,5092 6128,5107C6128,5122 6123,5141 6118,5148C6102,5167 6069,5162 6063,5140C6058,5122 6049,5120 5989,5120L5920,5120L5899,5163C5864,5229 5850,5298 5850,5396C5850,5513 5873,5603 5967,5855C6069,6127 6092,6218 6093,6350C6093,6438 6089,6467 6068,6528C6037,6614 6015,6650 5994,6650C5985,6650 5965,6661 5948,6675C5919,6700 5907,6703 5883,6693ZM5620,5948C5620,5917 5609,5903 5577,5891C5535,5875 5530,5877 5530,5909C5530,5959 5539,5970 5581,5970C5615,5970 5620,5967 5620,5948ZM6103,4943C6092,4870 6058,4799 5993,4712C5957,4664 5921,4611 5913,4594C5900,4568 5889,4561 5856,4555C5805,4547 5780,4547 5771,4555C5759,4568 5758,4870 5770,4870C5776,4870 5813,4889 5851,4911C5941,4965 5983,4979 6052,4980L6109,4980L6103,4943Z" style="fill-rule:nonzero;"/>
        <path d="M8173,6680C8141,6667 8144,6654 8188,6625C8258,6579 8421,6549 8508,6566C8538,6572 8580,6603 8580,6619C8580,6630 8489,6666 8430,6680C8374,6692 8203,6692 8173,6680Z" style="fill-rule:nonzero;"/>
        <path d="M7602,6604C7552,6551 7486,6518 7369,6490C7277,6467 7243,6442 7260,6410C7266,6400 7278,6389 7288,6386C7313,6378 7484,6425 7556,6460C7635,6499 7713,6579 7708,6618C7706,6640 7699,6645 7675,6648C7651,6650 7637,6642 7602,6604Z" style="fill-rule:nonzero;"/>
        <path d="M8100,5637C8100,5605 8107,5596 8174,5540C8235,5491 8255,5467 8282,5412L8315,5345L8316,5155C8318,4977 8328,4889 8349,4875C8363,4867 8421,4939 8451,5005C8579,5279 8418,5635 8152,5667L8100,5673L8100,5637Z" style="fill-rule:nonzero;"/>
        <path d="M7605,5188C7454,5058 7302,4980 6907,4831C6537,4691 6415,4632 6264,4524C6099,4406 6015,4325 6006,4276C5998,4235 6008,4170 6022,4170C6063,4170 6131,4239 6151,4301C6166,4344 6207,4388 6290,4449C6436,4557 6566,4619 6925,4755C7284,4891 7379,4935 7530,5036C7654,5119 7722,5183 7718,5213C7712,5254 7671,5245 7605,5188Z" style="fill-rule:nonzero;"/>
        <path d="M9530,4906C9530,4893 9519,4863 9506,4839C9488,4806 9482,4780 9482,4735C9483,4695 9474,4648 9456,4595C9383,4379 9210,4204 8915,4048C8839,4008 8814,3989 8812,3973C8810,3957 8816,3947 8834,3939C8856,3929 8872,3935 8977,3990C9124,4067 9203,4123 9304,4219C9437,4348 9510,4467 9550,4624C9561,4668 9579,4713 9589,4724C9614,4751 9630,4812 9630,4878L9630,4930L9580,4930C9534,4930 9530,4928 9530,4906Z" style="fill-rule:nonzero;"/>
        <path d="M6126,3921C6123,3917 6113,3870 6104,3819C6083,3696 6089,3508 6119,3395C6164,3225 6229,3134 6383,3027C6491,2952 6551,2920 6646,2888C6706,2868 6734,2865 6860,2865C6997,2866 7010,2867 7100,2898C7343,2982 7528,3116 7863,3451C8052,3640 8081,3673 8078,3696C8076,3714 8067,3726 8051,3732C8028,3740 8013,3727 7871,3579C7592,3289 7389,3126 7187,3030C7061,2970 6972,2947 6855,2947C6748,2947 6665,2967 6563,3017C6375,3111 6318,3219 6255,3600C6216,3839 6203,3884 6170,3909C6137,3933 6133,3934 6126,3921Z" style="fill-rule:nonzero;"/>
        <path d="M2750,6460C2383,6339 2229,6264 2067,6125C2001,6069 1989,6054 1992,6032C1997,5987 2024,5995 2103,6067C2241,6193 2422,6283 2754,6392L2943,6454L2971,6422C2997,6393 3000,6383 3000,6318C3000,6265 2994,6236 2978,6202C2945,6136 2872,6061 2799,6017C2729,5976 2585,5926 2503,5915C2442,5907 2429,5888 2460,5850C2501,5799 2504,5784 2485,5735C2461,5672 2410,5599 2310,5485C2200,5359 2166,5308 2184,5298C2192,5293 2201,5275 2205,5257C2209,5240 2218,5216 2225,5204C2232,5193 2244,5130 2250,5064C2264,4918 2292,4750 2326,4605C2341,4545 2354,4494 2355,4492C2357,4490 2375,4496 2396,4505C2480,4540 2521,4605 2571,4777C2588,4836 2608,4895 2616,4907C2623,4919 2644,4973 2661,5027C2707,5170 2712,5178 2765,5186C2791,5189 2897,5187 3003,5181C3192,5170 3341,5147 3430,5115C3491,5094 3835,4862 3917,4788C3980,4730 4075,4675 4092,4686C4107,4695 4100,4750 4080,4789C4057,4835 4000,4886 3928,4925C3899,4941 3822,4998 3757,5052C3570,5208 3501,5256 3440,5273C3369,5293 3245,5310 3167,5310C3127,5310 3089,5317 3060,5331C3021,5348 2999,5350 2871,5348L2727,5345L2684,5300C2648,5261 2635,5235 2594,5112C2547,4971 2546,4970 2511,4959C2467,4946 2428,4959 2406,4992C2398,5005 2377,5054 2360,5102C2342,5151 2324,5193 2319,5196C2314,5199 2310,5219 2310,5240C2310,5274 2317,5285 2377,5342C2413,5377 2500,5482 2570,5575C2726,5784 2808,5864 2925,5920C2972,5942 3010,5967 3010,5975C3010,5982 3028,6023 3051,6064C3088,6134 3091,6145 3086,6193C3083,6221 3076,6281 3072,6325C3067,6369 3059,6415 3052,6427C3035,6457 2959,6520 2941,6519C2932,6519 2846,6492 2750,6460Z" style="fill-rule:nonzero;"/>
        <path d="M1163,6504C1156,6501 1150,6489 1150,6478C1150,6466 1130,6436 1106,6410C1081,6384 1048,6336 1032,6304C1015,6271 976,6219 945,6187C853,6093 799,5944 839,5896C848,5885 849,5876 840,5861C828,5838 810,5834 793,5851C785,5859 780,5845 776,5799C735,5352 730,5135 756,4979C772,4889 809,4770 830,4744C836,4738 858,4690 880,4639C920,4545 930,4484 908,4462C886,4440 843,4448 817,4480C803,4496 776,4517 758,4526C728,4540 721,4551 698,4623C684,4668 659,4743 642,4790C625,4837 607,4894 600,4918C594,4941 564,4997 534,5041C488,5109 478,5131 470,5188C458,5272 444,5314 389,5420C365,5467 333,5531 319,5564C295,5617 289,5624 244,5640C217,5650 175,5665 152,5674C125,5684 95,5688 76,5685C48,5679 43,5673 32,5628C25,5597 24,5573 29,5566C35,5559 33,5530 24,5490C3,5391 -4,5209 9,5092C44,4774 143,4501 397,4025C423,3976 453,3911 463,3883C483,3825 511,3792 550,3783C564,3780 583,3770 594,3761C625,3735 787,3517 795,3490C799,3477 844,3423 894,3370L985,3275L1057,3030C1179,2616 1192,2555 1195,2400C1197,2250 1208,2198 1285,1970C1403,1621 1403,1518 1287,1452C1150,1374 1033,1259 912,1085C878,1036 828,973 800,945C741,888 700,810 692,743L687,697L716,704C776,719 825,773 901,907C956,1004 1070,1151 1155,1235C1249,1328 1347,1394 1370,1380C1395,1365 1359,1311 1250,1195C1104,1042 1041,964 1014,905C965,800 1000,763 1075,840C1107,873 1121,880 1145,878L1175,875L1172,723C1169,594 1171,566 1186,542C1208,504 1239,485 1253,499C1259,505 1274,510 1287,510C1333,510 1343,555 1351,780C1359,1042 1367,1067 1505,1305C1557,1394 1563,1410 1561,1455C1558,1526 1528,1665 1484,1805C1401,2073 1379,2157 1364,2259C1329,2498 1317,2565 1265,2775C1184,3106 1128,3254 1034,3386C988,3451 904,3532 858,3556C843,3564 790,3624 740,3690C690,3756 641,3814 630,3820C618,3826 610,3836 611,3843C616,3888 606,3908 552,3960C444,4063 257,4431 162,4730C97,4933 85,5015 85,5240C85,5375 90,5459 98,5488C110,5528 113,5530 149,5530C181,5530 192,5524 214,5495C254,5443 284,5369 315,5245C354,5091 379,5012 405,4959C430,4911 496,4845 534,4830C551,4824 567,4794 603,4696C629,4627 650,4559 650,4545C650,4518 623,4500 552,4481C504,4468 489,4446 512,4423C526,4410 535,4411 596,4432L665,4456L716,4433C751,4417 794,4382 854,4320C942,4229 973,4178 983,4108C989,4072 987,4069 930,4025C857,3969 820,3925 820,3894C820,3859 862,3861 881,3896C888,3911 920,3942 950,3965C980,3989 1016,4017 1029,4029C1067,4062 1118,4071 1329,4080C1519,4089 1564,4095 1609,4119C1639,4136 1635,4149 1593,4167C1565,4179 1511,4185 1395,4189L1235,4195L1160,4345C1102,4463 1075,4506 1033,4547C995,4584 969,4624 936,4694C896,4781 890,4802 881,4903C875,4965 870,5186 870,5395C870,5829 862,5784 969,5960C991,5996 1018,6060 1030,6105C1055,6199 1107,6311 1149,6360C1176,6393 1182,6395 1231,6393C1300,6391 1356,6368 1363,6337C1382,6265 1381,6196 1361,6055C1330,5843 1333,5852 1262,5802C1198,5757 1186,5740 1218,5740C1251,5740 1270,5707 1270,5653C1270,5618 1276,5595 1290,5577C1309,5554 1310,5537 1310,5320C1310,5102 1309,5086 1289,5059C1273,5036 1261,5030 1234,5030C1197,5030 1160,5015 1160,5000C1160,4995 1185,4994 1215,4997C1268,5003 1272,5001 1324,4960C1411,4894 1483,4789 1599,4562L1705,4355L1860,4355C2031,4355 2051,4350 2172,4288C2254,4246 2274,4230 2333,4157C2386,4092 2412,4076 2454,4084C2543,4101 2488,4202 2354,4268C2320,4285 2269,4313 2240,4330C2164,4375 2075,4409 2000,4421C1964,4427 1925,4434 1912,4436C1883,4442 1805,4513 1773,4564C1737,4620 1704,4713 1686,4810C1662,4940 1628,5297 1633,5366C1641,5470 1718,5616 1846,5772C1910,5850 1922,5878 1896,5899C1874,5917 1856,5904 1783,5812C1621,5610 1567,5495 1550,5319C1539,5198 1514,5061 1499,5044C1483,5024 1451,5027 1413,5050L1380,5070L1384,5357C1387,5516 1394,5672 1399,5705C1405,5738 1408,5788 1404,5815C1401,5845 1406,5914 1418,5990C1449,6186 1452,6222 1439,6296C1432,6334 1428,6379 1428,6397C1430,6437 1398,6465 1326,6485C1266,6501 1180,6511 1163,6504Z" style="fill-rule:nonzero;"/>
        <path d="M2930,4824C2930,4787 2928,4789 3037,4692C3063,4669 3069,4653 3075,4605C3085,4525 3073,4506 2975,4456C2932,4433 2895,4410 2893,4405C2891,4399 2906,4386 2925,4376C3008,4331 3059,4219 3110,3970C3136,3843 3165,3746 3188,3703C3226,3634 3311,3582 3626,3434C3719,3390 3762,3355 3780,3309C3854,3122 3915,2987 3956,2918C4037,2783 4159,2666 4181,2701C4201,2733 4182,2873 4145,2960C4132,2991 4094,3066 4060,3126C3975,3279 3971,3296 4002,3367C4016,3399 4033,3443 4040,3465C4047,3487 4061,3526 4072,3552L4092,3598L4135,3583C4159,3575 4186,3558 4195,3544C4212,3518 4244,3513 4284,3532C4310,3543 4326,3572 4315,3590C4304,3608 4234,3621 4205,3610C4187,3603 4166,3603 4140,3610C4109,3618 4095,3631 4067,3676C4002,3779 3962,4001 3975,4185C3981,4276 4003,4430 4016,4472C4020,4485 4007,4491 3946,4505C3882,4519 3867,4520 3844,4508L3816,4495L3818,4310C3822,3973 3834,3861 3881,3712C3897,3661 3910,3601 3910,3577C3909,3522 3881,3461 3840,3427L3808,3399L3775,3425C3736,3454 3644,3501 3510,3560C3458,3583 3385,3622 3349,3646L3283,3690L3288,3759C3295,3858 3276,3968 3219,4159C3192,4250 3167,4355 3164,4391C3156,4471 3176,4548 3221,4609L3252,4652L3333,4648C3427,4644 3482,4622 3553,4560C3605,4513 3630,4509 3630,4545C3630,4563 3616,4581 3578,4610C3482,4687 3397,4716 3295,4708L3231,4702L3146,4765C3067,4824 2991,4860 2948,4860C2934,4860 2930,4852 2930,4824Z" style="fill-rule:nonzero;"/>
        <path d="M4135,4625C4108,4599 4102,4549 4123,4532C4131,4525 4150,4526 4183,4533C4227,4544 4230,4546 4230,4577C4230,4612 4201,4650 4175,4650C4166,4650 4148,4639 4135,4625Z" style="fill-rule:nonzero;"/>
        <path d="M10475,3990C10403,3977 10306,3943 10220,3900C10179,3879 10079,3834 9997,3800C9828,3729 9804,3714 9814,3682C9818,3669 9830,3660 9841,3660C9852,3660 9935,3692 10027,3730C10157,3786 10202,3800 10233,3798C10255,3796 10275,3790 10277,3783C10280,3776 10246,3753 10198,3729C9809,3534 9343,3220 8960,2897C8743,2713 8604,2585 8352,2336C8147,2133 8123,2100 8176,2092C8191,2090 8249,2140 8401,2288C8881,2755 9225,3042 9640,3320C9914,3504 10333,3731 10524,3797C10579,3816 10640,3840 10660,3850C10708,3874 10763,3927 10755,3940C10728,3983 10583,4009 10475,3990Z" style="fill-rule:nonzero;"/>
        <path d="M12040,3811C12026,3776 11967,3719 11919,3695C11902,3686 11815,3654 11727,3624C11547,3563 11487,3533 11439,3484L11407,3451L11433,3412C11448,3388 11477,3364 11507,3349C11554,3325 11560,3325 11784,3328L12013,3330L12064,3275C12106,3231 12122,3220 12147,3220C12174,3220 12180,3225 12190,3255C12211,3317 12203,3417 12165,3564C12145,3643 12130,3728 12130,3761C12130,3813 12128,3818 12106,3824C12093,3827 12075,3832 12067,3835C12058,3839 12049,3831 12040,3811Z" style="fill-rule:nonzero;"/>
        <path d="M1328,3789C1300,3773 1306,3758 1361,3705C1434,3632 1512,3528 1567,3425L1615,3335L1680,3330C1737,3326 1757,3318 1840,3269C1892,3238 1945,3209 1957,3205C1970,3202 1993,3179 2009,3156C2026,3132 2089,3060 2150,2995C2235,2904 2277,2850 2332,2757C2370,2692 2418,2620 2438,2598C2474,2558 2527,2524 2538,2534C2541,2538 2538,2574 2532,2616C2509,2763 2433,2899 2301,3030C2206,3124 2034,3255 1994,3264C1978,3268 1920,3297 1866,3330C1812,3362 1765,3390 1761,3392C1758,3394 1739,3425 1720,3463C1653,3595 1564,3682 1408,3768C1376,3786 1349,3800 1348,3800C1346,3800 1337,3795 1328,3789Z" style="fill-rule:nonzero;"/>
        <path d="M2465,3715C2460,3713 2443,3709 2428,3706C2414,3703 2388,3688 2371,3674C2350,3656 2320,3646 2273,3638C2185,3625 2148,3606 2152,3577C2156,3551 2176,3550 2290,3574C2331,3582 2416,3589 2478,3589L2590,3590L2590,3623C2590,3665 2568,3696 2533,3704C2517,3708 2498,3713 2490,3715C2482,3717 2471,3717 2465,3715Z" style="fill-rule:nonzero;"/>
        <path d="M9020,3243C9020,3233 9025,3218 9030,3210C9038,3197 9041,3197 9056,3212C9070,3226 9071,3232 9060,3244C9043,3265 9020,3264 9020,3243Z" style="fill-rule:nonzero;"/>
        <path d="M9870,3051C9680,2984 9584,2943 9355,2829C9034,2669 8997,2644 9030,2605C9050,2581 9071,2587 9181,2646C9471,2802 9680,2897 9893,2971C9969,2997 10038,3024 10046,3031C10066,3047 10063,3077 10041,3090C10015,3103 10023,3105 9870,3051Z" style="fill-rule:nonzero;"/>
        <path d="M2985,2284C3013,2157 3050,2073 3106,2003C3136,1967 3140,1954 3140,1906L3140,1850L3174,1850C3193,1850 3212,1846 3215,1840C3226,1822 3238,1829 3249,1861C3267,1912 3262,1949 3236,1975C3221,1990 3201,2034 3186,2083C3147,2211 3086,2286 3007,2306C2980,2312 2979,2311 2985,2284Z" style="fill-rule:nonzero;"/>
        <path d="M2898,1008C2870,980 2540,847 2334,780C2143,719 1983,678 1825,650C1684,626 1660,617 1660,591C1660,555 1686,552 1819,575C2123,628 2491,743 2838,894C2964,948 2970,934 2871,817C2718,634 2619,468 2581,330C2565,272 2563,254 2573,248C2599,230 2686,247 2775,287L2864,327L2896,426C2942,572 2974,649 3050,808C3088,886 3113,950 3107,950C3100,950 3068,968 3035,990C2967,1035 2930,1040 2898,1008Z" style="fill-rule:nonzero;"/>
        <path d="M563,563C541,459 567,231 619,65L638,5L699,2C758,-1 760,0 780,32C802,69 806,137 790,255C780,337 790,398 819,421C839,437 839,438 808,444C787,448 755,472 713,516C621,610 576,624 563,563Z" style="fill-rule:nonzero;"/>
    </g>
</svg>
